<?xml version="1.0" standalone="no"?>
<!DOCTYPE svg PUBLIC "-//W3C//DTD SVG 1.1//EN" "http://www.w3.org/Graphics/SVG/1.1/DTD/svg11.dtd" >
<svg xmlns="http://www.w3.org/2000/svg">
<metadata></metadata>
<defs>
<font id="ars_maquettetrblack" horiz-adv-x="1245" >
<font-face units-per-em="2048" ascent="1495" descent="-553" />
<missing-glyph horiz-adv-x="552" />
<glyph horiz-adv-x="2048" />
<glyph horiz-adv-x="2048" />
<glyph unicode="&#xd;" horiz-adv-x="2048" />
<glyph unicode=" "  horiz-adv-x="552" />
<glyph unicode="&#x09;" horiz-adv-x="552" />
<glyph unicode="&#xa0;" horiz-adv-x="552" />
<glyph unicode="!" horiz-adv-x="620" d="M111 997v369h399v-369l-61 -520h-277zM113 0v344h395v-344h-395z" />
<glyph unicode="&#x22;" horiz-adv-x="1124" d="M98 1257v109h400v-109l-62 -520h-276zM625 1257v109h401v-109l-63 -520h-275z" />
<glyph unicode="#" d="M2 360v205h254l45 238h-217v207h256l68 356h231l-66 -356h179l67 356h234l-68 -356h217v-207h-256l-43 -238h219v-205h-258l-65 -360h-234l68 360h-180l-68 -360h-233l65 360h-215zM492 565h180l43 238h-180z" />
<glyph unicode="$" d="M31 346l280 131q90 -169 256 -203v265q-7 1 -20.5 4t-20.5 4q-65 12 -119 28.5t-112.5 48t-98.5 73t-66 106.5t-26 145q0 194 126.5 312t336.5 129v149h129v-152q290 -29 449 -288l-275 -158q-64 96 -174 135v-246q109 -20 192 -51t147.5 -77.5t98 -113t33.5 -151.5 q0 -180 -125 -308t-346 -148v-173h-129v170q-375 22 -536 369zM459 979q0 -47 25.5 -75.5t82.5 -45.5v227q-53 -7 -80.5 -35t-27.5 -71zM696 272q123 20 123 123q0 49 -31 77t-92 44v-244z" />
<glyph unicode="%" horiz-adv-x="1646" d="M47 1016q0 153 108.5 260.5t262.5 107.5q153 0 260.5 -107.5t107.5 -260.5q0 -152 -108 -259.5t-260 -107.5q-154 0 -262.5 107.5t-108.5 259.5zM287 1016q0 -54 37.5 -90.5t93.5 -36.5q54 0 91.5 36.5t37.5 90.5t-37.5 91.5t-91.5 37.5q-55 0 -93 -37.5t-38 -91.5z M315 0l740 1366h278l-739 -1366h-279zM862 350q0 152 108.5 259.5t260.5 107.5q154 0 262.5 -107.5t108.5 -259.5q0 -153 -108.5 -260.5t-262.5 -107.5q-153 0 -261 107.5t-108 260.5zM1102 350q0 -54 37.5 -91.5t91.5 -37.5t92.5 37.5t38.5 91.5t-38.5 90.5t-92.5 36.5 t-91.5 -36.5t-37.5 -90.5z" />
<glyph unicode="&#x26;" horiz-adv-x="1460" d="M43 391q0 228 283 361q-117 137 -117 272q0 119 60 203.5t159.5 124t230.5 39.5q455 0 455 -353q0 -232 -285 -346l164 -168q51 81 88 189l303 -111q-58 -165 -167 -303l294 -299h-487l-72 76q-184 -101 -411 -101q-102 0 -191 27t-158 78t-109 131t-40 180zM403 430 q0 -70 56 -118t145 -48q78 0 146 29l-256 276q-91 -58 -91 -139zM547 1034q0 -40 27 -78.5t79 -87.5q156 64 156 164q0 115 -135 115q-53 0 -90 -28t-37 -85z" />
<glyph unicode="'" horiz-adv-x="595" d="M98 1257v109h400v-109l-62 -520h-276z" />
<glyph unicode="(" horiz-adv-x="790" d="M86 621q0 212 65 408t240 433h402q-106 -128 -177 -242t-108.5 -217t-52.5 -192t-15 -190q0 -137 26.5 -255t107 -268.5t219.5 -318.5h-402q-175 235 -240 432t-65 410z" />
<glyph unicode=")" horiz-adv-x="790" d="M-2 -221q106 127 176.5 241t108 217.5t52.5 193t15 190.5t-15 190t-52.5 192t-108 217t-176.5 242h401q176 -237 241 -433t65 -408t-65.5 -409t-240.5 -433h-401z" />
<glyph unicode="*" horiz-adv-x="958" d="M86 1098l115 198l211 -180l-45 275h229l-49 -269l215 174l115 -198l-267 -97l264 -94l-114 -200l-213 178l49 -275h-229l45 275l-209 -178l-115 200l252 94z" />
<glyph unicode="+" d="M72 469v307h397v398h307v-398h398v-307h-398v-397h-307v397h-397z" />
<glyph unicode="," horiz-adv-x="600" d="M104 0v383h394v-303q0 -247 -156 -416h-238q172 148 172 313v23h-172z" />
<glyph unicode="-" horiz-adv-x="815" d="M72 410v331h671v-331h-671z" />
<glyph unicode="." horiz-adv-x="600" d="M104 0v383h394v-383h-394z" />
<glyph unicode="/" horiz-adv-x="815" d="M25 -221l450 1683h311l-450 -1683h-311z" />
<glyph unicode="0" d="M66 686q0 705 555 705q125 0 222 -36t160.5 -98t104.5 -152.5t58.5 -193t17.5 -225.5q0 -124 -17.5 -227.5t-58.5 -194.5t-104.5 -154t-160.5 -99t-222 -36q-555 0 -555 711zM451 686q0 -71 3 -124t13.5 -108.5t28.5 -90.5t49.5 -57.5t75.5 -22.5t76 22.5t50.5 58 t29.5 90.5t14.5 108.5t3.5 123.5q0 89 -6.5 153t-24 124t-53.5 91t-90 31q-44 0 -75.5 -22t-49.5 -56.5t-28.5 -89.5t-13.5 -107.5t-3 -123.5z" />
<glyph unicode="1" d="M152 1194q163 26 269.5 67t178.5 105h285v-1044h297v-322h-994v322h316v647q-135 -43 -307 -60z" />
<glyph unicode="2" d="M53 1049q199 342 559 342q233 0 377 -121.5t144 -333.5q0 -156 -115.5 -308.5t-349.5 -283.5h512v-344h-1080v272q368 261 497.5 392t129.5 249q0 64 -43.5 106t-108.5 42q-66 0 -124 -44t-95 -130z" />
<glyph unicode="3" d="M39 360l332 101q30 -83 99 -121.5t159 -38.5q73 0 115 32.5t42 88.5q0 53 -46 83t-117 30h-156v303h149q52 0 97 30.5t45 81.5q0 55 -42.5 84t-101.5 29q-81 0 -137.5 -39.5t-99.5 -118.5l-316 137q92 180 233.5 264.5t338.5 84.5q100 0 189 -24.5t160 -72.5t113 -127 t42 -180q0 -187 -166 -278q101 -35 155 -117.5t54 -181.5q0 -90 -37.5 -168.5t-106.5 -138t-175.5 -94t-235.5 -34.5q-453 0 -586 385z" />
<glyph unicode="4" d="M43 256v274q103 202 164 432.5t61 403.5h371q0 -171 -63 -377t-177 -422h273v453h370v-453h166v-311h-166v-256h-380v256h-619z" />
<glyph unicode="5" d="M51 283l303 161q75 -141 238 -141q76 0 132 47t56 121q0 75 -53.5 122.5t-146.5 47.5q-140 0 -226 -109l-225 89l51 745h918v-346h-621l-22 -158q41 29 105 44.5t128 15.5q132 0 239 -50t173.5 -153t66.5 -244q0 -95 -34 -182t-100 -159t-176.5 -115.5t-250.5 -43.5 q-374 0 -555 308z" />
<glyph unicode="6" d="M68 520q0 449 409 846h541q-318 -226 -443 -436q62 41 173 41q194 0 316 -127t122 -342q0 -236 -154 -381.5t-403 -145.5q-261 0 -411 141t-150 404zM465 496q0 -92 41 -146.5t123 -54.5q79 0 119 55t40 148t-39.5 144.5t-119.5 51.5q-82 0 -123 -52.5t-41 -145.5z" />
<glyph unicode="7" d="M100 1020v346h1082v-258q-16 -24 -66 -96.5t-74 -109t-71.5 -110t-73 -123t-62.5 -122.5t-57 -133.5t-39.5 -132t-25.5 -142t-2 -139.5h-430q0 94 17 189.5t40 171.5t66 163.5t74.5 143.5t87 134.5t82.5 114t81 103.5h-629z" />
<glyph unicode="8" d="M59 389q0 104 49.5 192t159.5 134q-71 36 -118.5 108t-47.5 174q0 191 135.5 292.5t385.5 101.5q251 0 385.5 -101.5t134.5 -292.5q0 -102 -47.5 -174t-118.5 -108q111 -46 160 -133.5t49 -192.5q0 -196 -148.5 -305t-414.5 -109t-415 109t-149 305zM451 410 q0 -79 49 -117.5t123 -38.5q75 0 123.5 38t48.5 118q0 81 -48.5 120t-123.5 39q-74 0 -123 -39t-49 -120zM487 981q0 -71 38 -104t96 -33q60 0 98.5 33t38.5 104q0 66 -38.5 98.5t-96.5 32.5q-59 0 -97.5 -32.5t-38.5 -98.5z" />
<glyph unicode="9" d="M59 864q0 236 154 381.5t405 145.5q260 0 411 -141.5t151 -403.5q0 -242 -108.5 -447.5t-301.5 -398.5h-543q313 221 445 436q-65 -41 -174 -41q-194 0 -316.5 127t-122.5 342zM457 868q0 -93 40 -144.5t121 -51.5q82 0 122 52.5t40 145.5q0 92 -40.5 146.5t-121.5 54.5 q-80 0 -120.5 -55t-40.5 -148z" />
<glyph unicode=":" horiz-adv-x="600" d="M104 0v383h394v-383h-394zM104 723v385h394v-385h-394z" />
<glyph unicode=";" horiz-adv-x="600" d="M104 0v383h394v-303q0 -247 -156 -416h-238q172 148 172 313v23h-172zM104 723v385h394v-385h-394z" />
<glyph unicode="&#x3c;" d="M172 625l649 649l217 -215l-434 -434l434 -432l-217 -218z" />
<glyph unicode="=" d="M72 244v307h1102v-307h-1102zM72 694v307h1102v-307h-1102z" />
<glyph unicode="&#x3e;" d="M209 193l434 432l-434 434l215 215l649 -649l-649 -650z" />
<glyph unicode="?" horiz-adv-x="1114" d="M10 1190q112 101 242 151t293 50q240 0 384 -119.5t144 -331.5q0 -93 -34 -171.5t-92 -134t-123.5 -94t-141.5 -63.5h-381v314q55 -17 139 -17q236 0 236 154q0 70 -50.5 105.5t-123.5 35.5q-177 0 -287 -121zM301 0v344h395v-344h-395z" />
<glyph unicode="@" horiz-adv-x="1826" d="M92 616q0 165 57 307t161 245.5t260 163t345 59.5q187 0 342 -58.5t259 -161.5t161.5 -245.5t57.5 -309.5q0 -195 -106 -316.5t-286 -121.5q-72 0 -121.5 24.5t-93.5 71.5q-40 -43 -105.5 -69.5t-133.5 -26.5q-187 0 -304.5 121t-117.5 315t117.5 314.5t310.5 120.5 q124 0 199 -60l53 39h129v-571q0 -36 21.5 -61t62.5 -25q74 0 115 65.5t41 179.5q0 272 -153.5 433t-438.5 161q-141 0 -256 -47t-189 -128t-113.5 -188.5t-39.5 -230.5t39.5 -230t113.5 -187.5t189 -127t256 -46.5q172 0 295 77l104 -149q-178 -109 -408 -109 q-189 0 -345 58.5t-260 161t-161 244.5t-57 308zM758 614q0 -91 44 -147.5t122 -56.5q45 0 69 16v377q-35 14 -69 14q-78 0 -122 -56.5t-44 -146.5z" />
<glyph unicode="A" horiz-adv-x="1427" d="M-25 0l506 1366h467l504 -1366h-432l-84 252h-455l-82 -252h-424zM573 555h271l-135 496z" />
<glyph unicode="B" horiz-adv-x="1398" d="M117 0v1366h704q219 0 339 -96.5t120 -265.5q0 -90 -46 -169t-130 -124q105 -40 162 -125.5t57 -192.5q0 -186 -123.5 -289.5t-341.5 -103.5h-741zM506 330h313q43 0 73 32t30 74q0 43 -30 76t-73 33h-313v-215zM506 848h280q44 0 73.5 26.5t29.5 67.5t-29 66.5t-74 25.5 h-280v-186z" />
<glyph unicode="C" horiz-adv-x="1419" d="M57 686q0 158 51.5 290.5t143.5 223t221 141t281 50.5q195 0 357 -89t271 -282l-315 -180q-58 115 -131.5 167t-171.5 52q-142 0 -225.5 -107t-83.5 -266q0 -162 83.5 -270.5t225.5 -108.5q99 0 168.5 56.5t118.5 166.5l340 -151q-204 -404 -637 -404q-203 0 -361 87 t-247 249t-89 375z" />
<glyph unicode="D" horiz-adv-x="1474" d="M117 0v1366h604q223 0 381.5 -86.5t236.5 -238t78 -353.5q0 -205 -78 -358.5t-236.5 -241.5t-381.5 -88h-604zM506 344h215q144 0 220.5 91.5t76.5 252.5q0 158 -76 245t-221 87h-215v-676z" />
<glyph unicode="E" horiz-adv-x="1294" d="M117 0v1366h1095v-346h-708v-164h598v-303h-598v-209h708v-344h-1095z" />
<glyph unicode="F" horiz-adv-x="1257" d="M117 0v1366h1095v-346h-708v-205h598v-303h-598v-512h-387z" />
<glyph unicode="G" horiz-adv-x="1486" d="M57 686q0 323 194.5 514t516.5 191q208 0 367 -95t251 -266l-335 -166q-41 95 -114 145t-169 50q-151 0 -231 -104t-80 -269q0 -189 84 -293t231 -104q90 0 159 49.5t91 128.5h-297v303h719q0 -3 3 -35t3 -49q0 -152 -47.5 -282.5t-134.5 -225.5t-217 -149t-287 -54 q-317 0 -512 194.5t-195 516.5z" />
<glyph unicode="H" horiz-adv-x="1492" d="M117 0v1366h389v-481h479v481h391v-1366h-391v541h-479v-541h-389z" />
<glyph unicode="I" horiz-adv-x="620" d="M117 0v1366h387v-1366h-387z" />
<glyph unicode="J" horiz-adv-x="1134" d="M-31 307l334 144q23 -68 69 -103t107 -35q78 0 120 43t42 129v881h377v-870q0 -256 -137 -388.5t-379 -132.5q-189 0 -326.5 83t-206.5 249z" />
<glyph unicode="K" horiz-adv-x="1423" d="M117 0v1366h387v-530l442 530h467l-459 -537l510 -829h-475l-313 535l-172 -205v-330h-387z" />
<glyph unicode="L" horiz-adv-x="1204" d="M117 0v1366h387v-1022h659v-344h-1046z" />
<glyph unicode="M" horiz-adv-x="1849" d="M117 0v1366h555l256 -881l256 881h549v-1366h-377v956l-281 -956h-305l-276 946v-946h-377z" />
<glyph unicode="N" horiz-adv-x="1495" d="M117 0v1366h497l394 -823v823h370v-1366h-481l-408 842v-842h-372z" />
<glyph unicode="O" horiz-adv-x="1540" d="M57 686q0 146 48.5 274t138 224t225 151.5t299.5 55.5t300.5 -55.5t226 -151t139 -224t49.5 -274.5q0 -148 -49 -277t-139 -225.5t-226.5 -152.5t-300.5 -56t-299.5 56t-225 152.5t-138 225.5t-48.5 277zM459 686q0 -98 33 -177.5t104.5 -130t171.5 -50.5q149 0 231 103 t82 255q0 149 -82 250.5t-231 101.5q-100 0 -171.5 -50t-104.5 -128t-33 -174z" />
<glyph unicode="P" horiz-adv-x="1327" d="M117 0v1366h649q233 0 375.5 -137t142.5 -350q0 -212 -142.5 -348t-375.5 -136h-260v-395h-389zM506 741h262q56 0 93.5 37.5t37.5 100.5q0 64 -37.5 102.5t-93.5 38.5h-262v-279z" />
<glyph unicode="Q" horiz-adv-x="1540" d="M57 686q0 146 48.5 274t138 224t225 151.5t299.5 55.5t300.5 -55.5t226 -151t139 -224t49.5 -274.5q0 -144 -47.5 -272t-135.5 -224l146 -163l-248 -205l-160 196q-127 -43 -270 -43q-164 0 -299.5 56t-225 152.5t-138 225.5t-48.5 277zM459 686q0 -98 33 -177.5 t104.5 -130t171.5 -50.5h23l-111 139l219 176l137 -156q45 88 45 199q0 149 -82 250.5t-231 101.5q-100 0 -171.5 -50t-104.5 -128t-33 -174z" />
<glyph unicode="R" horiz-adv-x="1351" d="M117 0v1366h649q245 0 380.5 -126t135.5 -327q0 -267 -223 -397l282 -516h-448l-215 438h-176v-438h-385zM502 741h252q56 0 93.5 37.5t37.5 100.5q0 64 -37.5 102.5t-93.5 38.5h-252v-279z" />
<glyph unicode="S" horiz-adv-x="1323" d="M25 346l319 135q111 -196 346 -196q77 0 134 30.5t57 83.5q0 17 -4.5 31t-16 25t-23 19.5t-33 15.5t-38 12t-46 10.5t-48.5 8.5t-54.5 9t-56.5 9q-51 9 -91.5 18t-89.5 25t-86 36.5t-74 51.5t-61 69.5t-38.5 91.5t-14.5 117q0 205 149.5 324t395.5 119q187 0 333 -67.5 t249 -225.5l-297 -158q-46 64 -119.5 99.5t-161.5 35.5q-72 0 -119 -24t-47 -72q0 -53 52.5 -77.5t175.5 -43.5q129 -20 221 -48t168.5 -76t115 -122t38.5 -176q0 -95 -39.5 -178t-112.5 -146.5t-186.5 -100t-253.5 -36.5q-452 0 -643 371z" />
<glyph unicode="T" horiz-adv-x="1282" d="M43 1020v346h1196v-346h-405v-1020h-388v1020h-403z" />
<glyph unicode="U" horiz-adv-x="1456" d="M115 537v829h389v-829q0 -108 55 -159.5t170 -51.5q225 0 225 211v829h387v-829q0 -272 -163.5 -417t-448.5 -145q-286 0 -450 145t-164 417z" />
<glyph unicode="V" horiz-adv-x="1333" d="M-45 1366h424l289 -874l278 874h432l-493 -1366h-434z" />
<glyph unicode="W" horiz-adv-x="1898" d="M-31 1366h428l166 -821l185 821h395l184 -825l168 825h434l-387 -1366h-424l-176 784l-178 -784h-424z" />
<glyph unicode="X" horiz-adv-x="1376" d="M-59 0l495 709l-448 657h463l239 -385l238 385h458l-446 -657l496 -709h-467l-283 440l-283 -440h-462z" />
<glyph unicode="Y" horiz-adv-x="1335" d="M-55 1366h452l271 -506l272 506h451l-531 -854v-512h-385v508z" />
<glyph unicode="Z" horiz-adv-x="1280" d="M47 0v291l627 729h-600v346h1147v-272l-639 -750h657v-344h-1192z" />
<glyph unicode="[" horiz-adv-x="743" d="M88 -221v1683h594v-307h-242v-1069h242v-307h-594z" />
<glyph unicode="\" horiz-adv-x="815" d="M25 1462h311l450 -1683h-311z" />
<glyph unicode="]" horiz-adv-x="743" d="M59 86h242v1069h-242v307h594v-1683h-594v307z" />
<glyph unicode="^" d="M25 889l477 477h248l477 -477l-215 -215l-387 385l-385 -385z" />
<glyph unicode="_" horiz-adv-x="1222" d="M0 -180h1223v-119h-1223v119z" />
<glyph unicode="`" horiz-adv-x="663" d="M27 1366l196 121l340 -291h-307z" />
<glyph unicode="a" horiz-adv-x="1234" d="M51 324q0 57 14.5 103t32 76.5t56 56t62.5 38.5t78.5 25.5t75.5 16t80 11.5q9 1 13 2q140 19 160 24q65 16 72 57q1 7 1 14q0 81 -145 81q-81 0 -178 -26t-172 -72l-113 287q94 56 231.5 84t274.5 28q481 0 481 -395v-450q0 -45 43 -45q36 0 53 14l37 -227 q-32 -21 -86 -32t-102 -11q-85 0 -150.5 31.5t-95.5 93.5q-51 -68 -142.5 -101t-197.5 -33q-169 0 -276 92t-107 257zM420 340q0 -50 31 -75t79 -25q166 0 166 159v107q-15 -17 -39.5 -27t-44 -13.5t-65.5 -10.5q-58 -9 -92.5 -33.5t-34.5 -81.5z" />
<glyph unicode="b" horiz-adv-x="1357" d="M109 0v1462h374v-456q130 124 316 124q228 0 364.5 -162t136.5 -415q0 -163 -60 -294t-175 -207.5t-266 -76.5q-183 0 -316 127v-102h-374zM483 551q0 -112 55.5 -184t159.5 -72q101 0 154 72.5t53 183.5q0 112 -53.5 187t-153.5 75q-103 0 -159 -75t-56 -187z" />
<glyph unicode="c" horiz-adv-x="1202" d="M57 551q0 167 68.5 297t202.5 206t313 76q185 0 319.5 -91t192.5 -246l-322 -113q-56 143 -184 143q-92 0 -142 -74.5t-50 -195.5t51.5 -194.5t148.5 -73.5q65 0 109 42t67 105l338 -88q-64 -173 -200.5 -271t-327.5 -98q-179 0 -313 75.5t-202.5 205t-68.5 295.5z" />
<glyph unicode="d" horiz-adv-x="1357" d="M57 553q0 253 137 415t365 162q185 0 315 -124v456h375v-1462h-375v102q-133 -127 -315 -127q-113 0 -208 44.5t-159 122t-99.5 183.5t-35.5 228zM453 551q0 -111 52.5 -183.5t153.5 -72.5q104 0 159.5 72t55.5 184t-56 187t-159 75q-100 0 -153 -75t-53 -187z" />
<glyph unicode="e" horiz-adv-x="1292" d="M57 551q0 254 161 416.5t431 162.5q279 0 430.5 -155.5t151.5 -423.5q0 -36 -4 -90h-766q4 -83 67 -130.5t162 -47.5q161 0 297 123l244 -213q-120 -108 -255.5 -163t-313.5 -55q-285 0 -445 160.5t-160 415.5zM461 686h403q-6 86 -59.5 131t-140.5 45t-141.5 -44.5 t-61.5 -131.5z" />
<glyph unicode="f" horiz-adv-x="827" d="M20 774v279h166v43q0 173 109 281t321 108q112 0 207 -23l-28 -291q-62 19 -125 19q-62 0 -86.5 -20t-24.5 -60v-57h217v-279h-217v-774h-373v774h-166z" />
<glyph unicode="g" horiz-adv-x="1355" d="M57 602q0 146 60 265.5t176 191t266 71.5q186 0 315 -126v104h375v-870q0 -147 -27.5 -250.5t-101.5 -184.5q-164 -180 -536 -180q-287 0 -490 111l123 282q148 -86 356 -86q136 0 218.5 50t82.5 161v58q-131 -125 -315 -125q-151 0 -266.5 71t-175.5 190.5t-60 266.5z M453 604q0 -102 54 -165.5t152 -63.5q99 0 157 65t58 164q0 100 -57 162.5t-158 62.5q-99 0 -152.5 -61.5t-53.5 -163.5z" />
<glyph unicode="h" horiz-adv-x="1263" d="M109 0v1462h374v-456q62 59 144 91.5t168 32.5q93 0 164.5 -31.5t115 -85.5t65 -122.5t21.5 -147.5v-743h-375v657q0 146 -141 146q-70 0 -116 -42t-46 -124v-637h-374z" />
<glyph unicode="i" horiz-adv-x="591" d="M109 0v1108h374v-1108h-374zM109 1223v239h374v-239h-374z" />
<glyph unicode="j" horiz-adv-x="618" d="M-166 -303l105 266q53 -31 106 -31q44 0 68 22t24 62v1092h373v-1063q0 -189 -97 -303.5t-292 -114.5q-169 0 -287 70zM137 1223v239h373v-239h-373z" />
<glyph unicode="k" horiz-adv-x="1298" d="M109 0v1462h374v-770l359 416h434l-389 -426l432 -682h-440l-246 432l-150 -166v-266h-374z" />
<glyph unicode="l" horiz-adv-x="591" d="M109 0v1462h374v-1462h-374z" />
<glyph unicode="m" horiz-adv-x="1912" d="M109 0v1108h374v-102q127 124 303 124q218 0 297 -169q71 91 167.5 130t193.5 39q94 0 166 -31t115 -86t64 -123t21 -147v-743h-374v657q0 67 -30 106.5t-110 39.5q-68 0 -108.5 -41.5t-40.5 -124.5v-637h-375v657q0 67 -29.5 106.5t-109.5 39.5q-68 0 -109 -41.5 t-41 -124.5v-637h-374z" />
<glyph unicode="n" horiz-adv-x="1263" d="M109 0v1108h374v-102q62 59 144 91.5t168 32.5q93 0 164.5 -31.5t115 -85.5t65 -122.5t21.5 -147.5v-743h-375v657q0 146 -141 146q-70 0 -116 -42t-46 -124v-637h-374z" />
<glyph unicode="o" horiz-adv-x="1327" d="M57 551q0 264 165 421.5t442 157.5t441.5 -157.5t164.5 -421.5q0 -263 -164.5 -419.5t-441.5 -156.5t-442 156.5t-165 419.5zM455 553q0 -124 54 -196t155 -72q102 0 155 71.5t53 196.5t-53 197.5t-155 72.5q-101 0 -155 -73t-54 -197z" />
<glyph unicode="p" horiz-adv-x="1357" d="M109 -356v1464h374v-104q129 126 316 126q151 0 266 -76.5t175 -207t60 -293.5q0 -165 -60 -295.5t-175 -206.5t-266 -76q-181 0 -316 125v-456h-374zM483 555q0 -112 56 -186t159 -74q100 0 153.5 75t53.5 185q0 111 -53 184.5t-154 73.5q-104 0 -159.5 -73t-55.5 -185z " />
<glyph unicode="q" horiz-adv-x="1357" d="M57 553q0 163 60.5 293.5t175.5 207t266 76.5q186 0 315 -126v104h375v-1464h-375v456q-135 -125 -315 -125q-151 0 -266 76t-175.5 206.5t-60.5 295.5zM453 555q0 -111 53 -185.5t153 -74.5q103 0 159 74t56 186t-55.5 185t-159.5 73q-101 0 -153.5 -73.5t-52.5 -184.5z " />
<glyph unicode="r" horiz-adv-x="884" d="M109 0v1108h374v-160q51 85 124.5 132.5t156.5 47.5q81 0 139 -30l-92 -383q-64 35 -123 35q-92 0 -148.5 -66.5t-56.5 -167.5v-516h-374z" />
<glyph unicode="s" horiz-adv-x="1185" d="M27 274l301 107q87 -143 295 -143q61 0 101 23t40 63q0 44 -49 65.5t-156 34.5q-57 7 -101.5 14.5t-96 21t-89 30.5t-74.5 43t-60.5 59t-37.5 78t-14 100q0 89 38 158.5t105.5 113t157 66t195.5 22.5q355 0 536 -256l-270 -122q-97 120 -273 120q-52 0 -86 -19t-34 -58 t44 -59t142 -31q248 -29 368.5 -109t120.5 -244q0 -170 -140 -273.5t-392 -103.5q-419 0 -571 299z" />
<glyph unicode="t" horiz-adv-x="927" d="M20 774v279h168v313h375v-313h297v-279h-297v-393q0 -39 23 -60.5t61 -21.5q69 0 123 57l158 -258q-82 -66 -162 -94.5t-178 -28.5q-203 0 -301.5 102t-98.5 306v391h-168z" />
<glyph unicode="u" horiz-adv-x="1277" d="M111 365v743h372v-657q0 -146 142 -146q70 0 116.5 41.5t46.5 122.5v639h373v-1108h-373v100q-63 -59 -145 -92t-166 -33q-93 0 -164.5 31.5t-115 86.5t-65 123.5t-21.5 148.5z" />
<glyph unicode="v" horiz-adv-x="1171" d="M-29 1108h418l201 -641l196 641h414l-424 -1108h-381z" />
<glyph unicode="w" horiz-adv-x="1673" d="M-8 1108h411l121 -590l156 590h315l154 -590l123 590h409l-311 -1108h-375l-159 616l-164 -616h-375z" />
<glyph unicode="x" horiz-adv-x="1169" d="M-47 0l377 575l-342 533h438l162 -309l160 309h438l-346 -535l377 -573h-453l-180 342l-181 -342h-450z" />
<glyph unicode="y" horiz-adv-x="1167" d="M-31 1108h426l209 -621l193 621h401l-430 -1135q-69 -183 -169 -266.5t-265 -83.5q-180 0 -326 98l137 244q65 -43 125 -43q74 0 117 78l25 45z" />
<glyph unicode="z" horiz-adv-x="1107" d="M57 0v262l447 524h-424v322h960v-246l-452 -540h469v-322h-1000z" />
<glyph unicode="{" horiz-adv-x="874" d="M0 461v319h139q47 0 64.5 22t17.5 62v260q0 167 96.5 260t255.5 93h242v-322h-139q-103 0 -103 -111v-139q0 -217 -170 -284q170 -67 170 -285v-139q0 -111 103 -111h139v-322h-242q-159 0 -255.5 93t-96.5 260v260q0 39 -17.5 61.5t-64.5 22.5h-139z" />
<glyph unicode="|" horiz-adv-x="743" d="M225 -221v1683h287v-1683h-287z" />
<glyph unicode="}" horiz-adv-x="874" d="M59 86h140q56 0 79 28.5t23 82.5v139q0 218 170 285q-170 67 -170 284v139q0 54 -23 82.5t-79 28.5h-140v322h242q159 0 255.5 -93t96.5 -260v-260q0 -40 17.5 -62t64.5 -22h139v-319h-139q-47 0 -64.5 -22.5t-17.5 -61.5v-260q0 -167 -96.5 -260t-255.5 -93h-242v322z " />
<glyph unicode="~" d="M37 512v2q92 175 188 255.5t221 80.5q55 0 106.5 -18.5t121.5 -63.5q60 -41 90 -54.5t55 -13.5q46 0 83.5 33.5t86.5 112.5l219 -113q-92 -175 -188 -255.5t-221 -80.5q-55 0 -106.5 18.5t-121.5 63.5q-60 41 -90 54.5t-55 13.5q-46 0 -83.5 -33.5t-86.5 -112.5z" />
<glyph unicode="&#xa1;" horiz-adv-x="620" d="M111 111l61 520h277l61 -520v-369h-399v369zM113 762v346h395v-346h-395z" />
<glyph unicode="&#xa2;" d="M82 551q0 239 138 398t382 179v168h129v-168q161 -15 278.5 -102t170.5 -227l-320 -111q-15 48 -48.5 82t-80.5 47v-526q97 26 129 133l322 -105q-50 -143 -167.5 -233t-283.5 -109v-170h-129v170q-244 20 -382 178t-138 396zM449 553q0 -97 37.5 -167.5t115.5 -92.5v524 q-75 -16 -114 -90.5t-39 -173.5z" />
<glyph unicode="&#xa3;" d="M-18 545v221h135q-31 103 -31 170q0 213 148.5 334t386.5 121q198 0 337.5 -88t231.5 -265l-320 -147q-35 73 -81.5 113t-129.5 40q-70 0 -115.5 -39.5t-45.5 -105.5q0 -57 26 -133h318v-221h-267q-11 -109 -79 -183q53 23 104 23t119 -20q79 -23 108 -23q38 0 69 25 t48 71l293 -174q-65 -147 -162.5 -218t-214.5 -71q-67 0 -198.5 50.5t-208.5 50.5q-73 0 -164.5 -27t-163.5 -74l-129 297q207 78 207 209q0 29 -6 64h-215z" />
<glyph unicode="&#xa4;" horiz-adv-x="1460" d="M0 479v150h125q-2 18 -2 57v43h-123v148h143q56 230 232 372t432 142q128 0 234 -33t204 -115t174 -213l-323 -194q-59 117 -127.5 159.5t-161.5 42.5q-88 0 -150.5 -43t-97.5 -118h324v-148h-361q-2 -14 -2 -43q0 -39 2 -57h361v-150h-320q35 -70 97 -110.5t147 -40.5 q97 0 164 43.5t127 160.5l323 -188q-102 -195 -255 -282t-359 -87q-250 0 -424 139t-233 365h-150z" />
<glyph unicode="&#xa5;" d="M-12 1366h440l188 -463l187 463h438l-330 -631h232v-147h-309l-27 -51v-76h336v-150h-336v-311h-385v311h-342v150h342v71l-29 56h-313v147h235z" />
<glyph unicode="&#xa6;" horiz-adv-x="743" d="M225 -221v661h287v-661h-287zM225 801v661h287v-661h-287z" />
<glyph unicode="&#xa7;" horiz-adv-x="1212" d="M31 -51l219 278q144 -147 330 -147q48 0 86 10q1 0 -31 18.5t-64 37.5l-32 18q-118 69 -189 120t-137 124q-158 175 -158 395q0 165 71.5 298t207 211.5t311.5 78.5q312 0 537 -215l-219 -277q-145 148 -330 148q-47 0 -88 -13l129 -71q106 -59 181 -114.5t144 -129.5 q158 -175 158 -395q0 -166 -71.5 -299t-207 -211t-311.5 -78q-310 0 -536 213zM369 795q0 -74 34 -129q77 -129 349 -318l88 -61q4 14 4 47q0 71 -35 127q-85 138 -348 317l-90 62q-2 -16 -2 -45z" />
<glyph unicode="&#xa8;" horiz-adv-x="663" d="M-39 1196v266h262v-266h-262zM440 1196v266h262v-266h-262z" />
<glyph unicode="&#xa9;" horiz-adv-x="1605" d="M84 682q0 117 36.5 227t103 198t155 154.5t198 103t226.5 36.5t226.5 -36.5t198 -103t155 -154.5t103 -198t36.5 -227q0 -116 -36.5 -226t-103 -198.5t-155 -155t-198.5 -103t-226 -36.5t-226 36.5t-198.5 103t-155 155t-103 198.5t-36.5 226zM252 682q0 -149 73.5 -276 t200.5 -201t277 -74t277 74t200.5 201t73.5 276q0 112 -43.5 214.5t-117 176.5t-176 118t-214.5 44t-214.5 -44t-176 -118t-117 -176.5t-43.5 -214.5zM362 682q0 185 129.5 314.5t313.5 129.5q248 0 403 -249l-225 -148q-65 119 -174 119q-67 0 -114.5 -48.5t-47.5 -117.5 q0 -68 47.5 -119t114.5 -51q54 0 96 30t78 97l229 -150q-74 -126 -179.5 -187.5t-227.5 -61.5q-183 0 -313 129t-130 313z" />
<glyph unicode="&#xaa;" horiz-adv-x="890" d="M47 821q0 41 9.5 73.5t24.5 55t39.5 40t46.5 28t54.5 18.5t56 11.5t56.5 8.5q5 1 8 1q16 2 39.5 5t35.5 4.5t28.5 4.5t25 6.5t16.5 8.5t11.5 12.5t3.5 17.5q0 23 -16.5 35t-34 14t-45.5 2q-61 0 -129 -16t-119 -47l-82 207q65 39 164.5 59.5t193.5 20.5q344 0 344 -281 v-317q0 -27 25 -27q17 0 37 8l24 -164q-23 -15 -62 -25t-69 -10q-126 0 -172 84q-76 -90 -239 -90q-120 0 -197.5 66.5t-77.5 185.5zM319 834q0 -32 20.5 -50t49.5 -18q113 0 113 108v60q-22 -13 -103 -27q-80 -13 -80 -73z" />
<glyph unicode="&#xab;" horiz-adv-x="1234" d="M102 381v346l461 381v-346l-266 -209l266 -209v-344zM653 381v346l461 381v-346l-266 -209l266 -209v-344z" />
<glyph unicode="&#xac;" d="M72 469v307h1102v-704h-306v397h-796z" />
<glyph unicode="&#xad;" horiz-adv-x="815" d="M72 410v331h671v-331h-671z" />
<glyph unicode="&#xae;" horiz-adv-x="1605" d="M84 682q0 117 36.5 227t103 198t155 154.5t198 103t226.5 36.5t226.5 -36.5t198 -103t155 -154.5t103 -198t36.5 -227q0 -116 -36.5 -226t-103 -198.5t-155 -155t-198.5 -103t-226 -36.5t-226 36.5t-198.5 103t-155 155t-103 198.5t-36.5 226zM252 682q0 -149 73.5 -276 t200.5 -201t277 -74t277 74t200.5 201t73.5 276q0 112 -43.5 214.5t-117 176.5t-176 118t-214.5 44t-214.5 -44t-176 -118t-117 -176.5t-43.5 -214.5zM451 285h282v241h68l71 -241h310l-129 311q121 68 121 233q0 120 -77.5 190.5t-222.5 70.5h-423v-805zM733 723v164h84 q32 0 49 -22.5t17 -61.5q0 -80 -66 -80h-84z" />
<glyph unicode="&#xaf;" horiz-adv-x="710" d="M0 1237v190h711v-190h-711z" />
<glyph unicode="&#xb0;" horiz-adv-x="839" d="M80 1049q0 141 99.5 241.5t240.5 100.5q140 0 240 -100.5t100 -241.5q0 -139 -100 -239.5t-240 -100.5q-141 0 -240.5 100t-99.5 240zM295 1049q0 -51 36.5 -87t88.5 -36t88.5 36t36.5 87q0 53 -36.5 89t-88.5 36t-88.5 -36t-36.5 -89z" />
<glyph unicode="&#xb1;" d="M72 0v307h1102v-307h-1102zM72 715v305h397v328h307v-328h398v-305h-398v-326h-307v326h-397z" />
<glyph unicode="&#xb2;" horiz-adv-x="849" d="M45 1155q62 122 153 179t216 57q158 0 258 -84t100 -224q0 -66 -28 -129t-97.5 -130t-175.5 -122h332v-239h-727v196q232 160 318.5 250t86.5 166q0 36 -23.5 57t-60.5 21q-83 0 -129 -121z" />
<glyph unicode="&#xb3;" horiz-adv-x="858" d="M41 735l235 58q33 -119 148 -119q102 0 102 76q0 71 -71 71h-131v197h127q61 0 61 63q0 42 -24 63t-64 21q-54 0 -91 -27t-65 -96l-211 99q94 250 385 250q142 0 240 -71.5t98 -203.5q0 -65 -26.5 -108t-87.5 -72q71 -22 107 -76.5t36 -118.5q0 -134 -100 -213t-271 -79 q-317 0 -397 286z" />
<glyph unicode="&#xb4;" horiz-adv-x="663" d="M98 1196l340 291l197 -121l-229 -170h-308z" />
<glyph unicode="&#xb6;" horiz-adv-x="1282" d="M57 901q0 138 63 245t168.5 163.5t233.5 56.5h652v-1552h-240v1325h-113v-1325h-239v622h-60q-201 0 -333 128t-132 337z" />
<glyph unicode="&#xb7;" horiz-adv-x="600" d="M76 623q0 92 66 157.5t157 65.5q92 0 157.5 -65.5t65.5 -157.5q0 -91 -65.5 -157.5t-157.5 -66.5q-91 0 -157 66.5t-66 157.5z" />
<glyph unicode="&#xb8;" horiz-adv-x="663" d="M25 -254l229 170h307l-340 -291z" />
<glyph unicode="&#xb9;" horiz-adv-x="849" d="M98 1264q115 19 183 43.5t114 64.5h205v-678h191v-231h-668v231h203v400q-90 -25 -197 -39z" />
<glyph unicode="&#xba;" horiz-adv-x="946" d="M53 981q0 179 113.5 294.5t304.5 115.5q193 0 307.5 -115.5t114.5 -294.5q0 -181 -114.5 -296.5t-307.5 -115.5q-191 0 -304.5 115.5t-113.5 296.5zM342 983q0 -77 32.5 -127.5t96.5 -50.5q66 0 99.5 50.5t33.5 127.5q0 74 -34 123t-99 49q-64 0 -96.5 -49t-32.5 -123z " />
<glyph unicode="&#xbb;" horiz-adv-x="1234" d="M119 0v344l266 209l-266 209v346l461 -381v-346zM672 0v344l264 209l-264 209v346l458 -381v-346z" />
<glyph unicode="&#xbc;" horiz-adv-x="2142" d="M98 1264q115 19 183 43.5t114 64.5h205v-678h191v-231h-668v231h203v400q-90 -25 -197 -39zM545 0l833 1366h277l-834 -1366h-276zM1309 180v195q53 109 77 215q37 145 37 321h291q0 -83 -12 -152.5t-25 -108t-43 -113.5q-47 -111 -55 -129h143l31 301h223v-301h113v-228 h-113v-180h-274v180h-393z" />
<glyph unicode="&#xbd;" horiz-adv-x="2142" d="M98 1264q115 19 183 43.5t114 64.5h205v-678h191v-231h-668v231h203v400q-90 -25 -197 -39zM555 0l836 1366h276l-833 -1366h-279zM1339 692q62 123 152.5 179.5t216.5 56.5q159 0 258.5 -82.5t99.5 -224.5q0 -66 -28 -129t-97.5 -130t-175.5 -122h332v-240h-727v197 q234 161 320 250.5t86 166.5q0 34 -24 55t-60 21q-84 0 -129 -121z" />
<glyph unicode="&#xbe;" horiz-adv-x="2142" d="M41 735l235 58q33 -119 148 -119q102 0 102 76q0 71 -71 71h-131v197h127q61 0 61 63q0 42 -24 63t-64 21q-54 0 -91 -27t-65 -96l-211 99q94 250 385 250q142 0 240 -71.5t98 -203.5q0 -65 -26.5 -108t-87.5 -72q71 -22 107 -76.5t36 -118.5q0 -134 -100 -213t-271 -79 q-317 0 -397 286zM518 0l834 1366h278l-835 -1366h-277zM1309 180v195q53 109 77 215q37 145 37 321h291q0 -83 -12 -152.5t-25 -108t-43 -113.5q-47 -111 -55 -129h143l31 301h223v-301h113v-228h-113v-180h-274v180h-393z" />
<glyph unicode="&#xbf;" horiz-adv-x="1114" d="M41 168q0 92 33.5 170t92 133.5t124 94t141.5 65.5h381v-316q-62 19 -139 19q-236 0 -236 -154q0 -70 51 -105.5t125 -35.5q174 0 285 119l205 -242q-223 -199 -535 -199q-240 0 -384 119.5t-144 331.5zM418 762v346h395v-346h-395z" />
<glyph unicode="&#xc0;" horiz-adv-x="1427" d="M-25 0l506 1366h467l504 -1366h-432l-84 252h-455l-82 -252h-424zM340 1630l197 121l340 -291h-308zM573 555h271l-135 496z" />
<glyph unicode="&#xc1;" horiz-adv-x="1427" d="M-25 0l506 1366h467l504 -1366h-432l-84 252h-455l-82 -252h-424zM555 1460l340 291l197 -121l-230 -170h-307zM573 555h271l-135 496z" />
<glyph unicode="&#xc2;" horiz-adv-x="1427" d="M-25 0l506 1366h467l504 -1366h-432l-84 252h-455l-82 -252h-424zM336 1569l229 157h303l230 -157l-154 -133l-227 172l-228 -172zM573 555h271l-135 496z" />
<glyph unicode="&#xc3;" horiz-adv-x="1427" d="M-25 0l506 1366h467l504 -1366h-432l-84 252h-455l-82 -252h-424zM299 1516q65 118 131.5 172.5t155.5 54.5q71 0 162 -60q68 -47 104 -47q34 0 63.5 27.5t63.5 89.5l156 -80q-65 -118 -131.5 -172.5t-155.5 -54.5q-73 0 -162 59q-68 47 -104 47q-34 0 -63.5 -27 t-63.5 -89zM573 555h271l-135 496z" />
<glyph unicode="&#xc4;" horiz-adv-x="1427" d="M-25 0l506 1366h467l504 -1366h-432l-84 252h-455l-82 -252h-424zM338 1460v266h262v-266h-262zM573 555h271l-135 496zM817 1460v266h262v-266h-262z" />
<glyph unicode="&#xc5;" horiz-adv-x="1433" d="M-25 0l467 1257q-59 69 -59 156q0 114 97.5 195.5t234.5 81.5q136 0 232.5 -81.5t96.5 -195.5q0 -87 -57 -153l465 -1260h-432l-84 252h-455l-82 -252h-424zM573 555h271l-135 496zM606 1413q0 -44 31.5 -75t77.5 -31q44 0 75 31t31 75q0 46 -31 77.5t-75 31.5 q-46 0 -77.5 -31.5t-31.5 -77.5z" />
<glyph unicode="&#xc6;" horiz-adv-x="1982" d="M-84 0l684 1366h1301v-346h-644v-164h533v-303h-533v-209h644v-344h-1029v252h-415l-117 -252h-424zM598 555h274v512h-53z" />
<glyph unicode="&#xc7;" horiz-adv-x="1419" d="M57 686q0 158 51.5 290.5t143.5 223t221 141t281 50.5q195 0 357 -89t271 -282l-315 -180q-58 115 -131.5 167t-171.5 52q-142 0 -225.5 -107t-83.5 -266q0 -162 83.5 -270.5t225.5 -108.5q99 0 168.5 56.5t118.5 166.5l340 -151q-204 -404 -637 -404q-203 0 -361 87 t-247 249t-89 375zM393 -254l230 170h307l-340 -291z" />
<glyph unicode="&#xc8;" horiz-adv-x="1294" d="M117 0v1366h1095v-346h-708v-164h598v-303h-598v-209h708v-344h-1095zM297 1630l197 121l340 -291h-308z" />
<glyph unicode="&#xc9;" horiz-adv-x="1294" d="M117 0v1366h1095v-346h-708v-164h598v-303h-598v-209h708v-344h-1095zM489 1460l340 291l197 -121l-229 -170h-308z" />
<glyph unicode="&#xca;" horiz-adv-x="1294" d="M117 0v1366h1095v-346h-708v-164h598v-303h-598v-209h708v-344h-1095zM281 1569l229 157h303l229 -157l-153 -133l-227 172l-228 -172z" />
<glyph unicode="&#xcb;" horiz-adv-x="1294" d="M117 0v1366h1095v-346h-708v-164h598v-303h-598v-209h708v-344h-1095zM303 1460v266h262v-266h-262zM782 1460v266h262v-266h-262z" />
<glyph unicode="&#xcc;" horiz-adv-x="620" d="M-33 1630l197 121l340 -291h-307zM117 0v1366h387v-1366h-387z" />
<glyph unicode="&#xcd;" horiz-adv-x="620" d="M117 0v1366h387v-1366h-387zM117 1460l340 291l196 -121l-229 -170h-307z" />
<glyph unicode="&#xce;" horiz-adv-x="620" d="M-72 1569l230 157h303l229 -157l-153 -133l-228 172l-227 -172zM117 0v1366h387v-1366h-387z" />
<glyph unicode="&#xcf;" horiz-adv-x="620" d="M-63 1460v266h262v-266h-262zM117 0v1366h387v-1366h-387zM418 1460v266h262v-266h-262z" />
<glyph unicode="&#xd0;" horiz-adv-x="1579" d="M31 532v304h192v530h602q223 0 381.5 -86.5t237 -238t78.5 -353.5q0 -205 -78.5 -358.5t-237 -241.5t-381.5 -88h-602v532h-192zM610 344h215q144 0 220.5 91.5t76.5 252.5q0 158 -76 245t-221 87h-215v-184h279v-304h-279v-188z" />
<glyph unicode="&#xd1;" horiz-adv-x="1495" d="M117 0v1366h497l394 -823v823h370v-1366h-481l-408 842v-842h-372zM350 1516q65 118 131.5 172.5t155.5 54.5q71 0 162 -60q68 -47 104 -47q34 0 63.5 27.5t63.5 89.5l156 -80q-65 -118 -131.5 -172.5t-155.5 -54.5q-73 0 -162 59q-68 47 -104 47q-34 0 -63.5 -27 t-63.5 -89z" />
<glyph unicode="&#xd2;" horiz-adv-x="1540" d="M57 686q0 146 48.5 274t138 224t225 151.5t299.5 55.5t300.5 -55.5t226 -151t139 -224t49.5 -274.5q0 -148 -49 -277t-139 -225.5t-226.5 -152.5t-300.5 -56t-299.5 56t-225 152.5t-138 225.5t-48.5 277zM373 1630l196 121l340 -291h-307zM459 686q0 -98 33 -177.5 t104.5 -130t171.5 -50.5q149 0 231 103t82 255q0 149 -82 250.5t-231 101.5q-100 0 -171.5 -50t-104.5 -128t-33 -174z" />
<glyph unicode="&#xd3;" horiz-adv-x="1540" d="M57 686q0 146 48.5 274t138 224t225 151.5t299.5 55.5t300.5 -55.5t226 -151t139 -224t49.5 -274.5q0 -148 -49 -277t-139 -225.5t-226.5 -152.5t-300.5 -56t-299.5 56t-225 152.5t-138 225.5t-48.5 277zM459 686q0 -98 33 -177.5t104.5 -130t171.5 -50.5q149 0 231 103 t82 255q0 149 -82 250.5t-231 101.5q-100 0 -171.5 -50t-104.5 -128t-33 -174zM608 1460l340 291l197 -121l-230 -170h-307z" />
<glyph unicode="&#xd4;" horiz-adv-x="1540" d="M57 686q0 146 48.5 274t138 224t225 151.5t299.5 55.5t300.5 -55.5t226 -151t139 -224t49.5 -274.5q0 -148 -49 -277t-139 -225.5t-226.5 -152.5t-300.5 -56t-299.5 56t-225 152.5t-138 225.5t-48.5 277zM383 1569l229 157h303l230 -157l-154 -133l-227 172l-227 -172z M459 686q0 -98 33 -177.5t104.5 -130t171.5 -50.5q149 0 231 103t82 255q0 149 -82 250.5t-231 101.5q-100 0 -171.5 -50t-104.5 -128t-33 -174z" />
<glyph unicode="&#xd5;" horiz-adv-x="1540" d="M57 686q0 146 48.5 274t138 224t225 151.5t299.5 55.5t300.5 -55.5t226 -151t139 -224t49.5 -274.5q0 -148 -49 -277t-139 -225.5t-226.5 -152.5t-300.5 -56t-299.5 56t-225 152.5t-138 225.5t-48.5 277zM360 1516q65 118 131.5 172.5t155.5 54.5q71 0 162 -60 q68 -47 104 -47q34 0 63.5 27.5t63.5 89.5l156 -80q-65 -118 -131.5 -172.5t-155.5 -54.5q-72 0 -161 59q-68 47 -105 47q-34 0 -63.5 -27t-63.5 -89zM459 686q0 -98 33 -177.5t104.5 -130t171.5 -50.5q149 0 231 103t82 255q0 149 -82 250.5t-231 101.5q-100 0 -171.5 -50 t-104.5 -128t-33 -174z" />
<glyph unicode="&#xd6;" horiz-adv-x="1540" d="M57 686q0 146 48.5 274t138 224t225 151.5t299.5 55.5t300.5 -55.5t226 -151t139 -224t49.5 -274.5q0 -148 -49 -277t-139 -225.5t-226.5 -152.5t-300.5 -56t-299.5 56t-225 152.5t-138 225.5t-48.5 277zM385 1460v266h262v-266h-262zM459 686q0 -98 33 -177.5 t104.5 -130t171.5 -50.5q149 0 231 103t82 255q0 149 -82 250.5t-231 101.5q-100 0 -171.5 -50t-104.5 -128t-33 -174zM864 1460v266h262v-266h-262z" />
<glyph unicode="&#xd7;" d="M57 272l349 351l-349 350l215 215l351 -346l350 346l215 -215l-346 -350l346 -351l-215 -215l-350 349l-351 -349z" />
<glyph unicode="&#xd8;" horiz-adv-x="1540" d="M57 686q0 146 48.5 274t138 224t225 151.5t299.5 55.5q226 0 399 -105l68 80h223l-160 -188q89 -95 137 -222.5t48 -269.5q0 -148 -49 -277t-139 -225.5t-226.5 -152.5t-300.5 -56q-227 0 -399 107l-70 -82h-221l160 188q-181 200 -181 498zM459 686q0 -108 39 -190 l426 503q-67 39 -156 39q-100 0 -171.5 -50t-104.5 -128t-33 -174zM610 367q67 -39 158 -39q149 0 231 103t82 255q0 102 -41 186z" />
<glyph unicode="&#xd9;" horiz-adv-x="1456" d="M115 537v829h389v-829q0 -108 55 -159.5t170 -51.5q225 0 225 211v829h387v-829q0 -272 -163.5 -417t-448.5 -145q-286 0 -450 145t-164 417zM338 1630l197 121l339 -291h-307z" />
<glyph unicode="&#xda;" horiz-adv-x="1456" d="M115 537v829h389v-829q0 -108 55 -159.5t170 -51.5q225 0 225 211v829h387v-829q0 -272 -163.5 -417t-448.5 -145q-286 0 -450 145t-164 417zM580 1460l340 291l196 -121l-229 -170h-307z" />
<glyph unicode="&#xdb;" horiz-adv-x="1456" d="M115 537v829h389v-829q0 -108 55 -159.5t170 -51.5q225 0 225 211v829h387v-829q0 -272 -163.5 -417t-448.5 -145q-286 0 -450 145t-164 417zM346 1569l229 157h304l229 -157l-154 -133l-227 172l-227 -172z" />
<glyph unicode="&#xdc;" horiz-adv-x="1456" d="M115 537v829h389v-829q0 -108 55 -159.5t170 -51.5q225 0 225 211v829h387v-829q0 -272 -163.5 -417t-448.5 -145q-286 0 -450 145t-164 417zM365 1460v266h262v-266h-262zM844 1460v266h262v-266h-262z" />
<glyph unicode="&#xdd;" horiz-adv-x="1335" d="M-55 1366h452l271 -506l272 506h451l-531 -854v-512h-385v508zM506 1460l340 291l196 -121l-229 -170h-307z" />
<glyph unicode="&#xde;" horiz-adv-x="1327" d="M117 0v1366h389v-182h260q233 0 375.5 -137t142.5 -351q0 -212 -142.5 -347.5t-375.5 -135.5h-260v-213h-389zM506 559h262q56 0 93.5 37t37.5 100q0 64 -38 104t-93 40h-262v-281z" />
<glyph unicode="&#xdf;" horiz-adv-x="1392" d="M109 0v1016q0 225 146.5 349t434.5 124q256 0 409.5 -106.5t153.5 -305.5q0 -99 -50 -178.5t-130 -120.5q125 -34 196.5 -123t71.5 -235q0 -205 -141 -325t-364 -120q-171 0 -289 41l61 320q77 -35 156 -35q77 0 128.5 39t51.5 119q0 82 -54.5 113.5t-158.5 31.5h-127 v303h103q78 0 124 33t46 98q0 72 -53.5 107t-141.5 35q-99 0 -149 -43.5t-50 -126.5v-1010h-374z" />
<glyph unicode="&#xe0;" horiz-adv-x="1234" d="M51 324q0 57 14.5 103t32 76.5t56 56t62.5 38.5t78.5 25.5t75.5 16t80 11.5q9 1 13 2q140 19 160 24q65 16 72 57q1 7 1 14q0 81 -145 81q-81 0 -178 -26t-172 -72l-113 287q94 56 231.5 84t274.5 28q481 0 481 -395v-450q0 -45 43 -45q36 0 53 14l37 -227 q-32 -21 -86 -32t-102 -11q-85 0 -150.5 31.5t-95.5 93.5q-51 -68 -142.5 -101t-197.5 -33q-169 0 -276 92t-107 257zM223 1366l197 121l340 -291h-307zM420 340q0 -50 31 -75t79 -25q166 0 166 159v107q-15 -17 -39.5 -27t-44 -13.5t-65.5 -10.5q-58 -9 -92.5 -33.5 t-34.5 -81.5z" />
<glyph unicode="&#xe1;" horiz-adv-x="1234" d="M51 324q0 57 14.5 103t32 76.5t56 56t62.5 38.5t78.5 25.5t75.5 16t80 11.5q9 1 13 2q140 19 160 24q65 16 72 57q1 7 1 14q0 81 -145 81q-81 0 -178 -26t-172 -72l-113 287q94 56 231.5 84t274.5 28q481 0 481 -395v-450q0 -45 43 -45q36 0 53 14l37 -227 q-32 -21 -86 -32t-102 -11q-85 0 -150.5 31.5t-95.5 93.5q-51 -68 -142.5 -101t-197.5 -33q-169 0 -276 92t-107 257zM397 1196l340 291l197 -121l-229 -170h-308zM420 340q0 -50 31 -75t79 -25q166 0 166 159v107q-15 -17 -39.5 -27t-44 -13.5t-65.5 -10.5 q-58 -9 -92.5 -33.5t-34.5 -81.5z" />
<glyph unicode="&#xe2;" horiz-adv-x="1234" d="M51 324q0 57 14.5 103t32 76.5t56 56t62.5 38.5t78.5 25.5t75.5 16t80 11.5q9 1 13 2q140 19 160 24q65 16 72 57q1 7 1 14q0 81 -145 81q-81 0 -178 -26t-172 -72l-113 287q94 56 231.5 84t274.5 28q481 0 481 -395v-450q0 -45 43 -45q36 0 53 14l37 -227 q-32 -21 -86 -32t-102 -11q-85 0 -150.5 31.5t-95.5 93.5q-51 -68 -142.5 -101t-197.5 -33q-169 0 -276 92t-107 257zM203 1305l229 157h303l230 -157l-154 -134l-227 172l-228 -172zM420 340q0 -50 31 -75t79 -25q166 0 166 159v107q-15 -17 -39.5 -27t-44 -13.5 t-65.5 -10.5q-58 -9 -92.5 -33.5t-34.5 -81.5z" />
<glyph unicode="&#xe3;" horiz-adv-x="1234" d="M51 324q0 57 14.5 103t32 76.5t56 56t62.5 38.5t78.5 25.5t75.5 16t80 11.5q9 1 13 2q140 19 160 24q65 16 72 57q1 7 1 14q0 81 -145 81q-81 0 -178 -26t-172 -72l-113 287q94 56 231.5 84t274.5 28q481 0 481 -395v-450q0 -45 43 -45q36 0 53 14l37 -227 q-32 -21 -86 -32t-102 -11q-85 0 -150.5 31.5t-95.5 93.5q-51 -68 -142.5 -101t-197.5 -33q-169 0 -276 92t-107 257zM178 1251q65 119 131.5 173.5t155.5 54.5q71 0 162 -60q68 -47 104 -47q34 0 63.5 27.5t63.5 89.5l156 -80q-65 -118 -131.5 -172.5t-155.5 -54.5 q-73 0 -162 59q-68 47 -104 47q-34 0 -63.5 -27.5t-63.5 -89.5zM420 340q0 -50 31 -75t79 -25q166 0 166 159v107q-15 -17 -39.5 -27t-44 -13.5t-65.5 -10.5q-58 -9 -92.5 -33.5t-34.5 -81.5z" />
<glyph unicode="&#xe4;" horiz-adv-x="1234" d="M51 324q0 57 14.5 103t32 76.5t56 56t62.5 38.5t78.5 25.5t75.5 16t80 11.5q9 1 13 2q140 19 160 24q65 16 72 57q1 7 1 14q0 81 -145 81q-81 0 -178 -26t-172 -72l-113 287q94 56 231.5 84t274.5 28q481 0 481 -395v-450q0 -45 43 -45q36 0 53 14l37 -227 q-32 -21 -86 -32t-102 -11q-85 0 -150.5 31.5t-95.5 93.5q-51 -68 -142.5 -101t-197.5 -33q-169 0 -276 92t-107 257zM219 1196v266h262v-266h-262zM420 340q0 -50 31 -75t79 -25q166 0 166 159v107q-15 -17 -39.5 -27t-44 -13.5t-65.5 -10.5q-58 -9 -92.5 -33.5 t-34.5 -81.5zM698 1196v266h263v-266h-263z" />
<glyph unicode="&#xe5;" horiz-adv-x="1234" d="M51 324q0 57 14.5 103t32 76.5t56 56t62.5 38.5t78.5 25.5t75.5 16t80 11.5q9 1 13 2q140 19 160 24q65 16 72 57q1 7 1 14q0 81 -145 81q-81 0 -178 -26t-172 -72l-113 287q94 56 231.5 84t274.5 28q481 0 481 -395v-450q0 -45 43 -45q36 0 53 14l37 -227 q-32 -21 -86 -32t-102 -11q-85 0 -150.5 31.5t-95.5 93.5q-51 -68 -142.5 -101t-197.5 -33q-169 0 -276 92t-107 257zM315 1376q0 94 76 160t195 66t194.5 -66t75.5 -160q0 -95 -75 -159t-195 -64t-195.5 64t-75.5 159zM420 340q0 -50 31 -75t79 -25q166 0 166 159v107 q-15 -17 -39.5 -27t-44 -13.5t-65.5 -10.5q-58 -9 -92.5 -33.5t-34.5 -81.5zM487 1374q0 -40 29.5 -69t69.5 -29t69 29t29 69t-29 69.5t-69 29.5t-69.5 -29.5t-29.5 -69.5z" />
<glyph unicode="&#xe6;" horiz-adv-x="1902" d="M51 324q0 57 14.5 103t32 76.5t56 56t62.5 38.5t78.5 25.5t75.5 16t80 11.5q9 1 13 2q140 19 160 24q65 16 72 57q1 7 1 14q0 81 -145 81q-81 0 -178 -26t-172 -72l-113 287q94 56 231.5 84t274.5 28q116 0 193.5 -27t134.5 -93q129 120 358 120q266 0 416.5 -156.5 t150.5 -422.5q0 -36 -4 -90h-766q4 -83 67.5 -130.5t162.5 -47.5q161 0 297 123l243 -213q-120 -108 -255.5 -163t-313.5 -55q-259 0 -393 152q-132 -152 -391 -152q-215 0 -329 89.5t-114 259.5zM420 340q0 -50 31 -75t79 -25q166 0 166 159v107q-15 -17 -39.5 -27 t-44 -13.5t-65.5 -10.5q-58 -9 -92.5 -33.5t-34.5 -81.5zM1077 686h404q-6 86 -60 131t-141 45t-141.5 -44.5t-61.5 -131.5z" />
<glyph unicode="&#xe7;" horiz-adv-x="1202" d="M57 551q0 167 68.5 297t202.5 206t313 76q185 0 319.5 -91t192.5 -246l-322 -113q-56 143 -184 143q-92 0 -142 -74.5t-50 -195.5t51.5 -194.5t148.5 -73.5q65 0 109 42t67 105l338 -88q-64 -173 -200.5 -271t-327.5 -98q-179 0 -313 75.5t-202.5 205t-68.5 295.5z M274 -254l230 170h307l-340 -291z" />
<glyph unicode="&#xe8;" horiz-adv-x="1292" d="M57 551q0 254 161 416.5t431 162.5q279 0 430.5 -155.5t151.5 -423.5q0 -36 -4 -90h-766q4 -83 67 -130.5t162 -47.5q161 0 297 123l244 -213q-120 -108 -255.5 -163t-313.5 -55q-285 0 -445 160.5t-160 415.5zM276 1366l197 121l340 -291h-307zM461 686h403 q-6 86 -59.5 131t-140.5 45t-141.5 -44.5t-61.5 -131.5z" />
<glyph unicode="&#xe9;" horiz-adv-x="1292" d="M57 551q0 254 161 416.5t431 162.5q279 0 430.5 -155.5t151.5 -423.5q0 -36 -4 -90h-766q4 -83 67 -130.5t162 -47.5q161 0 297 123l244 -213q-120 -108 -255.5 -163t-313.5 -55q-285 0 -445 160.5t-160 415.5zM461 686h403q-6 86 -59.5 131t-140.5 45t-141.5 -44.5 t-61.5 -131.5zM483 1196l340 291l197 -121l-229 -170h-308z" />
<glyph unicode="&#xea;" horiz-adv-x="1292" d="M57 551q0 254 161 416.5t431 162.5q279 0 430.5 -155.5t151.5 -423.5q0 -36 -4 -90h-766q4 -83 67 -130.5t162 -47.5q161 0 297 123l244 -213q-120 -108 -255.5 -163t-313.5 -55q-285 0 -445 160.5t-160 415.5zM264 1305l230 157h303l229 -157l-154 -134l-227 172 l-227 -172zM461 686h403q-6 86 -59.5 131t-140.5 45t-141.5 -44.5t-61.5 -131.5z" />
<glyph unicode="&#xeb;" horiz-adv-x="1292" d="M57 551q0 254 161 416.5t431 162.5q279 0 430.5 -155.5t151.5 -423.5q0 -36 -4 -90h-766q4 -83 67 -130.5t162 -47.5q161 0 297 123l244 -213q-120 -108 -255.5 -163t-313.5 -55q-285 0 -445 160.5t-160 415.5zM276 1196v266h263v-266h-263zM461 686h403q-6 86 -59.5 131 t-140.5 45t-141.5 -44.5t-61.5 -131.5zM756 1196v266h262v-266h-262z" />
<glyph unicode="&#xec;" horiz-adv-x="591" d="M-68 1366l197 121l340 -291h-307zM109 0v1108h374v-1108h-374z" />
<glyph unicode="&#xed;" horiz-adv-x="591" d="M109 0v1108h374v-1108h-374zM125 1196l340 291l197 -121l-230 -170h-307z" />
<glyph unicode="&#xee;" horiz-adv-x="591" d="M-86 1305l229 157h303l230 -157l-154 -134l-227 172l-227 -172zM109 0v1108h374v-1108h-374z" />
<glyph unicode="&#xef;" horiz-adv-x="591" d="M-53 1196v266h262v-266h-262zM109 0v1108h374v-1108h-374zM383 1196v266h262v-266h-262z" />
<glyph unicode="&#xf0;" horiz-adv-x="1280" d="M61 434q0 99 30.5 178.5t80.5 129.5t118 83t137 46.5t144 13.5q60 0 134.5 -16.5t128.5 -57.5q-53 148 -189 244l-332 -142v142l179 75q-121 41 -252 41l55 265q318 -25 534 -160l244 104v-143l-123 -53q248 -230 248 -645q0 -270 -153.5 -416t-442.5 -146 q-82 0 -158.5 15.5t-147 50.5t-122 87t-82.5 130t-31 174zM451 436q0 -101 48.5 -157t129.5 -56q83 0 132.5 60.5t49.5 165.5q0 89 -50.5 146.5t-131.5 57.5q-80 0 -129 -59t-49 -158z" />
<glyph unicode="&#xf1;" horiz-adv-x="1263" d="M109 0v1108h374v-102q62 59 144 91.5t168 32.5q93 0 164.5 -31.5t115 -85.5t65 -122.5t21.5 -147.5v-743h-375v657q0 146 -141 146q-70 0 -116 -42t-46 -124v-637h-374zM246 1251q65 119 131 173.5t155 54.5q71 0 162 -60q68 -47 105 -47q34 0 63.5 27.5t63.5 89.5 l155 -80q-65 -119 -131 -173t-155 -54q-73 0 -162 59q-68 47 -105 47q-34 0 -63.5 -27.5t-63.5 -89.5z" />
<glyph unicode="&#xf2;" horiz-adv-x="1327" d="M57 551q0 264 165 421.5t442 157.5t441.5 -157.5t164.5 -421.5q0 -263 -164.5 -419.5t-441.5 -156.5t-442 156.5t-165 419.5zM274 1366l197 121l340 -291h-307zM455 553q0 -124 54 -196t155 -72q102 0 155 71.5t53 196.5t-53 197.5t-155 72.5q-101 0 -155 -73t-54 -197z " />
<glyph unicode="&#xf3;" horiz-adv-x="1327" d="M57 551q0 264 165 421.5t442 157.5t441.5 -157.5t164.5 -421.5q0 -263 -164.5 -419.5t-441.5 -156.5t-442 156.5t-165 419.5zM455 553q0 -124 54 -196t155 -72q102 0 155 71.5t53 196.5t-53 197.5t-155 72.5q-101 0 -155 -73t-54 -197zM504 1196l340 291l196 -121 l-229 -170h-307z" />
<glyph unicode="&#xf4;" horiz-adv-x="1327" d="M57 551q0 264 165 421.5t442 157.5t441.5 -157.5t164.5 -421.5q0 -263 -164.5 -419.5t-441.5 -156.5t-442 156.5t-165 419.5zM285 1305l229 157h303l230 -157l-154 -134l-227 172l-228 -172zM455 553q0 -124 54 -196t155 -72q102 0 155 71.5t53 196.5t-53 197.5 t-155 72.5q-101 0 -155 -73t-54 -197z" />
<glyph unicode="&#xf5;" horiz-adv-x="1327" d="M57 551q0 264 165 421.5t442 157.5t441.5 -157.5t164.5 -421.5q0 -263 -164.5 -419.5t-441.5 -156.5t-442 156.5t-165 419.5zM244 1251q65 119 131 173.5t155 54.5q71 0 162 -60q68 -47 105 -47q34 0 63.5 27.5t63.5 89.5l155 -80q-65 -119 -131 -173t-155 -54 q-73 0 -162 59q-68 47 -105 47q-34 0 -63.5 -27.5t-63.5 -89.5zM455 553q0 -124 54 -196t155 -72q102 0 155 71.5t53 196.5t-53 197.5t-155 72.5q-101 0 -155 -73t-54 -197z" />
<glyph unicode="&#xf6;" horiz-adv-x="1327" d="M57 551q0 264 165 421.5t442 157.5t441.5 -157.5t164.5 -421.5q0 -263 -164.5 -419.5t-441.5 -156.5t-442 156.5t-165 419.5zM295 1196v266h262v-266h-262zM455 553q0 -124 54 -196t155 -72q102 0 155 71.5t53 196.5t-53 197.5t-155 72.5q-101 0 -155 -73t-54 -197z M774 1196v266h262v-266h-262z" />
<glyph unicode="&#xf7;" d="M72 469v307h1102v-307h-1102zM424 197q0 83 58 140.5t141 57.5t140.5 -57.5t57.5 -140.5t-57.5 -141t-140.5 -58t-141 58t-58 141zM424 1049q0 83 58 141.5t141 58.5t140.5 -58.5t57.5 -141.5q0 -82 -57.5 -140.5t-140.5 -58.5t-141 58.5t-58 140.5z" />
<glyph unicode="&#xf8;" horiz-adv-x="1327" d="M57 551q0 264 165 421.5t442 157.5q195 0 342 -83l55 61h190l-133 -150q152 -158 152 -407q0 -263 -164.5 -419.5t-441.5 -156.5q-200 0 -342 82l-52 -57h-192l129 145q-150 156 -150 406zM455 553q0 -63 12 -115l319 361q-50 41 -122 41q-101 0 -155 -77.5t-54 -209.5z M543 307q48 -39 121 -39q102 0 155 76.5t53 208.5q0 63 -12 113z" />
<glyph unicode="&#xf9;" horiz-adv-x="1277" d="M111 365v743h372v-657q0 -146 142 -146q70 0 116.5 41.5t46.5 122.5v639h373v-1108h-373v100q-63 -59 -145 -92t-166 -33q-93 0 -164.5 31.5t-115 86.5t-65 123.5t-21.5 148.5zM254 1366l197 121l340 -291h-308z" />
<glyph unicode="&#xfa;" horiz-adv-x="1277" d="M111 365v743h372v-657q0 -146 142 -146q70 0 116.5 41.5t46.5 122.5v639h373v-1108h-373v100q-63 -59 -145 -92t-166 -33q-93 0 -164.5 31.5t-115 86.5t-65 123.5t-21.5 148.5zM481 1196l340 291l197 -121l-230 -170h-307z" />
<glyph unicode="&#xfb;" horiz-adv-x="1277" d="M111 365v743h372v-657q0 -146 142 -146q70 0 116.5 41.5t46.5 122.5v639h373v-1108h-373v100q-63 -59 -145 -92t-166 -33q-93 0 -164.5 31.5t-115 86.5t-65 123.5t-21.5 148.5zM256 1305l229 157h303l230 -157l-154 -134l-227 172l-227 -172z" />
<glyph unicode="&#xfc;" horiz-adv-x="1277" d="M111 365v743h372v-657q0 -146 142 -146q70 0 116.5 41.5t46.5 122.5v639h373v-1108h-373v100q-63 -59 -145 -92t-166 -33q-93 0 -164.5 31.5t-115 86.5t-65 123.5t-21.5 148.5zM266 1196v266h262v-266h-262zM745 1196v266h263v-266h-263z" />
<glyph unicode="&#xfd;" horiz-adv-x="1167" d="M-31 1108h426l209 -621l193 621h401l-430 -1135q-69 -183 -169 -266.5t-265 -83.5q-180 0 -326 98l137 244q65 -43 125 -43q74 0 117 78l25 45zM459 1196l340 291l196 -121l-229 -170h-307z" />
<glyph unicode="&#xfe;" horiz-adv-x="1357" d="M109 -356v1818h374v-458q129 126 316 126q151 0 266 -76.5t175 -207t60 -293.5q0 -165 -60 -295.5t-175 -206.5t-266 -76q-181 0 -316 125v-456h-374zM483 555q0 -112 56 -186t159 -74q100 0 153.5 75t53.5 185q0 111 -53 184.5t-154 73.5q-104 0 -159.5 -73t-55.5 -185z " />
<glyph unicode="&#xff;" horiz-adv-x="1167" d="M-31 1108h426l209 -621l193 621h401l-430 -1135q-69 -183 -169 -266.5t-265 -83.5q-180 0 -326 98l137 244q65 -43 125 -43q74 0 117 78l25 45zM231 1196v266h263v-266h-263zM711 1196v266h262v-266h-262z" />
<glyph unicode="&#x152;" horiz-adv-x="2045" d="M57 688q0 202 78.5 353.5t237.5 238t383 86.5h1202v-346h-643v-164h532v-303h-532v-209h643v-344h-1202q-224 0 -383 88t-237.5 241.5t-78.5 358.5zM457 688q0 -161 77.5 -252.5t221.5 -91.5h174v676h-174q-145 0 -222 -87t-77 -245z" />
<glyph unicode="&#x153;" horiz-adv-x="2054" d="M57 551q0 253 157.5 416t418.5 163q242 0 397 -145q155 145 395 145q265 0 416.5 -156.5t151.5 -422.5q0 -36 -4 -90h-766q4 -83 67 -130.5t162 -47.5q161 0 297 123l244 -213q-242 -218 -543 -218q-262 0 -416 148q-158 -148 -401 -148q-261 0 -418.5 162t-157.5 414z M455 553q0 -124 50 -196t144 -72q95 0 145 72t50 196q0 125 -50 197.5t-145 72.5q-93 0 -143.5 -73t-50.5 -197zM1223 686h403q-6 86 -60 131t-141 45t-141 -44.5t-61 -131.5z" />
<glyph unicode="&#x178;" horiz-adv-x="1335" d="M-55 1366h452l271 -506l272 506h451l-531 -854v-512h-385v508zM297 1460v266h262v-266h-262zM776 1460v266h262v-266h-262z" />
<glyph unicode="&#x2c6;" horiz-adv-x="710" d="M-25 1305l230 157h303l229 -157l-153 -134l-228 172l-227 -172z" />
<glyph unicode="&#x2dc;" horiz-adv-x="792" d="M-23 1251q65 119 131.5 173.5t155.5 54.5q71 0 162 -60q68 -47 104 -47q34 0 63.5 27.5t63.5 89.5l156 -80q-65 -118 -131.5 -172.5t-155.5 -54.5q-72 0 -161 59q-68 47 -105 47q-34 0 -63.5 -27.5t-63.5 -89.5z" />
<glyph unicode="&#x2000;" horiz-adv-x="876" />
<glyph unicode="&#x2001;" horiz-adv-x="1753" />
<glyph unicode="&#x2002;" horiz-adv-x="876" />
<glyph unicode="&#x2003;" horiz-adv-x="1753" />
<glyph unicode="&#x2004;" horiz-adv-x="584" />
<glyph unicode="&#x2005;" horiz-adv-x="438" />
<glyph unicode="&#x2006;" horiz-adv-x="292" />
<glyph unicode="&#x2007;" horiz-adv-x="292" />
<glyph unicode="&#x2008;" horiz-adv-x="219" />
<glyph unicode="&#x2009;" horiz-adv-x="350" />
<glyph unicode="&#x200a;" horiz-adv-x="97" />
<glyph unicode="&#x2010;" horiz-adv-x="815" d="M72 410v331h671v-331h-671z" />
<glyph unicode="&#x2011;" horiz-adv-x="815" d="M72 410v331h671v-331h-671z" />
<glyph unicode="&#x2012;" horiz-adv-x="815" d="M72 410v331h671v-331h-671z" />
<glyph unicode="&#x2013;" d="M72 469v307h1102v-307h-1102z" />
<glyph unicode="&#x2014;" horiz-adv-x="1796" d="M72 469v307h1652v-307h-1652z" />
<glyph unicode="&#x2018;" horiz-adv-x="600" d="M100 672v303q0 241 156 416h238q-170 -147 -170 -316v-22h170v-381h-394z" />
<glyph unicode="&#x2019;" horiz-adv-x="600" d="M104 647q170 147 170 316v22h-170v381h394v-301q0 -243 -156 -418h-238z" />
<glyph unicode="&#x201a;" horiz-adv-x="600" d="M104 0v383h394v-303q0 -247 -156 -416h-238q172 148 172 313v23h-172z" />
<glyph unicode="&#x201c;" horiz-adv-x="1146" d="M100 672v303q0 241 156 416h238q-170 -147 -170 -316v-22h170v-381h-394zM649 672v301q0 243 156 418h237q-170 -147 -170 -316v-22h170v-381h-393z" />
<glyph unicode="&#x201d;" horiz-adv-x="1146" d="M104 647q170 147 170 316v22h-170v381h394v-301q0 -243 -156 -418h-238zM653 647q170 147 170 316v22h-170v381h394v-303q0 -241 -156 -416h-238z" />
<glyph unicode="&#x201e;" horiz-adv-x="1146" d="M104 0v383h394v-303q0 -247 -156 -416h-238q172 148 172 313v23h-172zM653 0v383h394v-303q0 -247 -156 -416h-238q170 147 170 313v23h-170z" />
<glyph unicode="&#x2022;" horiz-adv-x="933" d="M96 682q0 154 109.5 263.5t261.5 109.5q154 0 263.5 -109.5t109.5 -263.5q0 -152 -109.5 -261.5t-263.5 -109.5q-152 0 -261.5 109.5t-109.5 261.5z" />
<glyph unicode="&#x2026;" horiz-adv-x="1796" d="M104 0v383h394v-383h-394zM705 0v383h393v-383h-393zM1303 0v383h393v-383h-393z" />
<glyph unicode="&#x202f;" horiz-adv-x="350" />
<glyph unicode="&#x2039;" horiz-adv-x="681" d="M117 0v1366h387v-1366h-387zM170 1464v256h283v-256h-283z" />
<glyph unicode="&#x203a;" horiz-adv-x="681" d="M109 0v1108h374v-1108h-374z" />
<glyph unicode="&#x205f;" horiz-adv-x="438" />
<glyph unicode="&#x20ac;" horiz-adv-x="1353" d="M57 602q0 146 60 265.5t176 191t266 71.5q186 0 315 -126v104h375v-870q0 -147 -27.5 -250.5t-101.5 -184.5q-164 -180 -536 -180q-287 0 -490 111l123 282q148 -86 356 -86q136 0 218.5 50t82.5 161v58q-131 -125 -315 -125q-151 0 -266.5 71t-175.5 190.5t-60 266.5z M297 1462h225q0 -54 47.5 -86.5t108.5 -32.5q62 0 109 32.5t47 86.5h225q0 -99 -70 -177.5t-166 -78.5h-288q-96 0 -167 78.5t-71 177.5zM453 604q0 -102 54 -165.5t152 -63.5q99 0 157 65t58 164q0 100 -57 162.5t-158 62.5q-99 0 -152.5 -61.5t-53.5 -163.5z" />
<glyph unicode="&#x2122;" horiz-adv-x="1540" d="M66 1188v178h573v-178h-197v-457h-184v457h-192zM719 731v635h242l122 -403l123 403h242v-635h-176v412l-131 -412h-115l-131 412v-412h-176z" />
<glyph unicode="&#x25fc;" horiz-adv-x="1105" d="M0 0v1106h1106v-1106h-1106z" />
<glyph unicode="&#xfb01;" horiz-adv-x="1417" d="M25 346l319 135q111 -196 346 -196q77 0 134 30.5t57 83.5q0 17 -4.5 31t-16 25t-23 19.5t-33 15.5t-38 12t-46 10.5t-48.5 8.5t-54.5 9t-56.5 9q-51 9 -91.5 18t-89.5 25t-86 36.5t-74 51.5t-61 69.5t-38.5 91.5t-14.5 117q0 205 149.5 324t395.5 119q187 0 333 -67.5 t249 -225.5l-297 -158q-46 64 -119.5 99.5t-161.5 35.5q-72 0 -119 -24t-47 -72q0 -53 52.5 -77.5t175.5 -43.5q129 -20 221 -48t168.5 -76t115 -122t38.5 -176q0 -95 -39.5 -178t-112.5 -146.5t-186.5 -100t-253.5 -36.5q-452 0 -643 371zM393 -254l230 170h307l-340 -291z " />
<glyph unicode="&#xfb02;" horiz-adv-x="1206" d="M27 274l301 107q87 -143 295 -143q61 0 101 23t40 63q0 44 -49 65.5t-156 34.5q-57 7 -101.5 14.5t-96 21t-89 30.5t-74.5 43t-60.5 59t-37.5 78t-14 100q0 89 38 158.5t105.5 113t157 66t195.5 22.5q355 0 536 -256l-270 -122q-97 120 -273 120q-52 0 -86 -19t-34 -58 t44 -59t142 -31q248 -29 368.5 -109t120.5 -244q0 -170 -140 -273.5t-392 -103.5q-419 0 -571 299zM324 -254l229 170h307l-340 -291z" />
</font>
</defs>
</svg>
